<?xml version="1.0" encoding="UTF-8" standalone="no"?>
<svg width="600" height="300" viewBox="0 0 600 300" fill="none" xmlns="http://www.w3.org/2000/svg">
  <!-- Dark background -->
  <rect width="600" height="300" fill="#1f2937"/>
  
  <!-- Chart grid lines -->
  <g opacity="0.1" stroke="#ffffff">
    <line x1="0" y1="50" x2="600" y2="50" stroke-width="1"/>
    <line x1="0" y1="100" x2="600" y2="100" stroke-width="1"/>
    <line x1="0" y1="150" x2="600" y2="150" stroke-width="1"/>
    <line x1="0" y1="200" x2="600" y2="200" stroke-width="1"/>
    <line x1="0" y1="250" x2="600" y2="250" stroke-width="1"/>
    
    <line x1="50" y1="0" x2="50" y2="300" stroke-width="1"/>
    <line x1="100" y1="0" x2="100" y2="300" stroke-width="1"/>
    <line x1="150" y1="0" x2="150" y2="300" stroke-width="1"/>
    <line x1="200" y1="0" x2="200" y2="300" stroke-width="1"/>
    <line x1="250" y1="0" x2="250" y2="300" stroke-width="1"/>
    <line x1="300" y1="0" x2="300" y2="300" stroke-width="1"/>
    <line x1="350" y1="0" x2="350" y2="300" stroke-width="1"/>
    <line x1="400" y1="0" x2="400" y2="300" stroke-width="1"/>
    <line x1="450" y1="0" x2="450" y2="300" stroke-width="1"/>
    <line x1="500" y1="0" x2="500" y2="300" stroke-width="1"/>
    <line x1="550" y1="0" x2="550" y2="300" stroke-width="1"/>
  </g>
  
  <!-- Chart candlesticks - simplified representation -->
  <!-- Green (bullish) candles -->
  <rect x="50" y="150" width="15" height="50" fill="#22c55e" opacity="0.9"/>
  <line x1="57.5" y1="140" x2="57.5" y2="150" stroke="#22c55e" stroke-width="2"/>
  <line x1="57.5" y1="200" x2="57.5" y2="210" stroke="#22c55e" stroke-width="2"/>
  
  <rect x="90" y="160" width="15" height="30" fill="#22c55e" opacity="0.9"/>
  <line x1="97.5" y1="155" x2="97.5" y2="160" stroke="#22c55e" stroke-width="2"/>
  <line x1="97.5" y1="190" x2="97.5" y2="195" stroke="#22c55e" stroke-width="2"/>
  
  <rect x="130" y="155" width="15" height="40" fill="#22c55e" opacity="0.9"/>
  <line x1="137.5" y1="145" x2="137.5" y2="155" stroke="#22c55e" stroke-width="2"/>
  <line x1="137.5" y1="195" x2="137.5" y2="205" stroke="#22c55e" stroke-width="2"/>
  
  <!-- Red (bearish) candles -->
  <rect x="170" y="145" width="15" height="35" fill="#ef4444" opacity="0.9"/>
  <line x1="177.5" y1="135" x2="177.5" y2="145" stroke="#ef4444" stroke-width="2"/>
  <line x1="177.5" y1="180" x2="177.5" y2="190" stroke="#ef4444" stroke-width="2"/>
  
  <rect x="210" y="150" width="15" height="25" fill="#ef4444" opacity="0.9"/>
  <line x1="217.5" y1="145" x2="217.5" y2="150" stroke="#ef4444" stroke-width="2"/>
  <line x1="217.5" y1="175" x2="217.5" y2="185" stroke="#ef4444" stroke-width="2"/>
  
  <!-- Green (bullish) candles -->
  <rect x="250" y="160" width="15" height="30" fill="#22c55e" opacity="0.9"/>
  <line x1="257.5" y1="150" x2="257.5" y2="160" stroke="#22c55e" stroke-width="2"/>
  <line x1="257.5" y1="190" x2="257.5" y2="200" stroke="#22c55e" stroke-width="2"/>
  
  <rect x="290" y="140" width="15" height="45" fill="#22c55e" opacity="0.9"/>
  <line x1="297.5" y1="130" x2="297.5" y2="140" stroke="#22c55e" stroke-width="2"/>
  <line x1="297.5" y1="185" x2="297.5" y2="195" stroke="#22c55e" stroke-width="2"/>
  
  <rect x="330" y="130" width="15" height="35" fill="#22c55e" opacity="0.9"/>
  <line x1="337.5" y1="120" x2="337.5" y2="130" stroke="#22c55e" stroke-width="2"/>
  <line x1="337.5" y1="165" x2="337.5" y2="175" stroke="#22c55e" stroke-width="2"/>
  
  <rect x="370" y="125" width="15" height="25" fill="#22c55e" opacity="0.9"/>
  <line x1="377.5" y1="115" x2="377.5" y2="125" stroke="#22c55e" stroke-width="2"/>
  <line x1="377.5" y1="150" x2="377.5" y2="160" stroke="#22c55e" stroke-width="2"/>
  
  <!-- Red (bearish) candle -->
  <rect x="410" y="130" width="15" height="20" fill="#ef4444" opacity="0.9"/>
  <line x1="417.5" y1="125" x2="417.5" y2="130" stroke="#ef4444" stroke-width="2"/>
  <line x1="417.5" y1="150" x2="417.5" y2="155" stroke="#ef4444" stroke-width="2"/>
  
  <!-- Strong green (bullish) breakout candles -->
  <rect x="450" y="110" width="15" height="40" fill="#22c55e" opacity="0.9"/>
  <line x1="457.5" y1="100" x2="457.5" y2="110" stroke="#22c55e" stroke-width="2"/>
  <line x1="457.5" y1="150" x2="457.5" y2="160" stroke="#22c55e" stroke-width="2"/>
  
  <rect x="490" y="90" width="15" height="45" fill="#22c55e" opacity="0.9"/>
  <line x1="497.5" y1="80" x2="497.5" y2="90" stroke="#22c55e" stroke-width="2"/>
  <line x1="497.5" y1="135" x2="497.5" y2="145" stroke="#22c55e" stroke-width="2"/>
  
  <rect x="530" y="80" width="15" height="30" fill="#22c55e" opacity="0.9"/>
  <line x1="537.5" y1="70" x2="537.5" y2="80" stroke="#22c55e" stroke-width="2"/>
  <line x1="537.5" y1="110" x2="537.5" y2="120" stroke="#22c55e" stroke-width="2"/>
  
  <!-- Key resistance level -->
  <line x1="0" y1="140" x2="450" y2="140" stroke="#f97316" stroke-width="2" stroke-dasharray="5,5"/>
  <text x="10" y="135" font-family="Arial" font-size="12" fill="#f97316">192.50 Resistance</text>
  
  <!-- Breakout arrow -->
  <path d="M 450 140 L 530 100" stroke="#22c55e" stroke-width="2" stroke-dasharray="5,3"/>
  <text x="460" y="115" font-family="Arial" font-size="14" fill="#22c55e">Breakout</text>
  
  <!-- Chart title and pair -->
  <text x="300" y="30" font-family="Arial" font-size="20" fill="white" text-anchor="middle" font-weight="bold">GBP/JPY Setup</text>
  
  <!-- Dynamic indicators -->
  <g transform="translate(450, 250)">
    <rect x="0" y="0" width="120" height="80" rx="5" fill="#1f2937" stroke="#374151"/>
    <text x="10" y="20" font-family="Arial" font-size="12" fill="#9ca3af">RSI (14): 62.8</text>
    <text x="10" y="40" font-family="Arial" font-size="12" fill="#9ca3af">MACD: Bullish</text>
    <text x="10" y="60" font-family="Arial" font-size="12" fill="#9ca3af">Target: 194.20</text>
  </g>
</svg>