<svg width="800" height="600" viewBox="0 0 800 600" xmlns="http://www.w3.org/2000/svg">
  <!-- Dark background -->
  <rect width="800" height="600" fill="#1a1a1a"/>
  
  <!-- Top toolbar -->
  <rect x="0" y="0" width="800" height="40" fill="#2a2a2a"/>
  
  <!-- Left sidebar - Navigator and Market Watch -->
  <rect x="0" y="40" width="200" height="560" fill="#232323"/>
  <rect x="10" y="50" width="180" height="25" rx="3" fill="#2c2c2c"/>
  <text x="20" y="68" font-family="Arial" font-size="14" fill="#e0e0e0">Market Watch</text>
  
  <!-- Symbol list -->
  <rect x="10" y="85" width="180" height="25" fill="#333333"/>
  <text x="15" y="100" font-family="Arial" font-size="11" fill="#cccccc">Symbol</text>
  <text x="100" y="100" font-family="Arial" font-size="11" fill="#cccccc">Bid</text>
  <text x="150" y="100" font-family="Arial" font-size="11" fill="#cccccc">Ask</text>
  
  <rect x="10" y="110" width="180" height="20" fill="#232323"/>
  <text x="15" y="125" font-family="Arial" font-size="11" fill="#cccccc">EUR/USD</text>
  <text x="100" y="125" font-family="Arial" font-size="11" fill="#ff4d4d">1.2043</text>
  <text x="150" y="125" font-family="Arial" font-size="11" fill="#4dff4d">1.2045</text>
  
  <rect x="10" y="130" width="180" height="20" fill="#232323"/>
  <text x="15" y="145" font-family="Arial" font-size="11" fill="#cccccc">GBP/USD</text>
  <text x="100" y="145" font-family="Arial" font-size="11" fill="#ff4d4d">1.4121</text>
  <text x="150" y="145" font-family="Arial" font-size="11" fill="#4dff4d">1.4123</text>
  
  <rect x="10" y="150" width="180" height="20" fill="#232323"/>
  <text x="15" y="165" font-family="Arial" font-size="11" fill="#cccccc">USD/JPY</text>
  <text x="100" y="165" font-family="Arial" font-size="11" fill="#ff4d4d">109.21</text>
  <text x="150" y="165" font-family="Arial" font-size="11" fill="#4dff4d">109.23</text>
  
  <rect x="10" y="170" width="180" height="20" fill="#232323"/>
  <text x="15" y="185" font-family="Arial" font-size="11" fill="#cccccc">USD/CHF</text>
  <text x="100" y="185" font-family="Arial" font-size="11" fill="#ff4d4d">0.9156</text>
  <text x="150" y="185" font-family="Arial" font-size="11" fill="#4dff4d">0.9158</text>
  
  <rect x="10" y="190" width="180" height="20" fill="#232323"/>
  <text x="15" y="205" font-family="Arial" font-size="11" fill="#cccccc">AUD/USD</text>
  <text x="100" y="205" font-family="Arial" font-size="11" fill="#ff4d4d">0.7723</text>
  <text x="150" y="205" font-family="Arial" font-size="11" fill="#4dff4d">0.7725</text>
  
  <!-- Depth of Market section -->
  <rect x="10" y="230" width="180" height="25" rx="3" fill="#2c2c2c"/>
  <text x="20" y="248" font-family="Arial" font-size="14" fill="#e0e0e0">Depth of Market</text>
  
  <rect x="10" y="260" width="180" height="25" fill="#333333"/>
  <text x="15" y="275" font-family="Arial" font-size="11" fill="#cccccc">Price</text>
  <text x="100" y="275" font-family="Arial" font-size="11" fill="#cccccc">Volume</text>
  <text x="150" y="275" font-family="Arial" font-size="11" fill="#cccccc">Total</text>
  
  <rect x="10" y="285" width="180" height="20" fill="#232323"/>
  <text x="15" y="300" font-family="Arial" font-size="11" fill="#4dff4d">1.2048</text>
  <text x="100" y="300" font-family="Arial" font-size="11" fill="#cccccc">1.25</text>
  <text x="150" y="300" font-family="Arial" font-size="11" fill="#cccccc">2.50</text>
  
  <rect x="10" y="305" width="180" height="20" fill="#232323"/>
  <text x="15" y="320" font-family="Arial" font-size="11" fill="#4dff4d">1.2047</text>
  <text x="100" y="320" font-family="Arial" font-size="11" fill="#cccccc">0.75</text>
  <text x="150" y="320" font-family="Arial" font-size="11" fill="#cccccc">3.25</text>
  
  <rect x="10" y="325" width="180" height="20" fill="#232323"/>
  <text x="15" y="340" font-family="Arial" font-size="11" fill="#4dff4d">1.2046</text>
  <text x="100" y="340" font-family="Arial" font-size="11" fill="#cccccc">2.00</text>
  <text x="150" y="340" font-family="Arial" font-size="11" fill="#cccccc">5.25</text>
  
  <rect x="10" y="345" width="180" height="20" fill="#2c2c2c"/>
  <text x="15" y="360" font-family="Arial" font-size="11" fill="#ffffff">1.2045</text>
  <text x="100" y="360" font-family="Arial" font-size="11" fill="#cccccc">→</text>
  <text x="150" y="360" font-family="Arial" font-size="11" fill="#ffffff">Current</text>
  
  <rect x="10" y="365" width="180" height="20" fill="#232323"/>
  <text x="15" y="380" font-family="Arial" font-size="11" fill="#ff4d4d">1.2044</text>
  <text x="100" y="380" font-family="Arial" font-size="11" fill="#cccccc">1.50</text>
  <text x="150" y="380" font-family="Arial" font-size="11" fill="#cccccc">1.50</text>
  
  <rect x="10" y="385" width="180" height="20" fill="#232323"/>
  <text x="15" y="400" font-family="Arial" font-size="11" fill="#ff4d4d">1.2043</text>
  <text x="100" y="400" font-family="Arial" font-size="11" fill="#cccccc">1.25</text>
  <text x="150" y="400" font-family="Arial" font-size="11" fill="#cccccc">2.75</text>
  
  <rect x="10" y="405" width="180" height="20" fill="#232323"/>
  <text x="15" y="420" font-family="Arial" font-size="11" fill="#ff4d4d">1.2042</text>
  <text x="100" y="420" font-family="Arial" font-size="11" fill="#cccccc">3.00</text>
  <text x="150" y="420" font-family="Arial" font-size="11" fill="#cccccc">5.75</text>
  
  <!-- Main chart area - Multi chart layout -->
  <!-- Chart 1 -->
  <rect x="200" y="40" width="300" height="280" fill="#111111"/>
  
  <!-- Price chart -->
  <polyline points="220,200 235,190 250,210 265,180 280,170 295,180 310,150 325,160 340,130 355,140 370,110 385,120 400,90 415,110 430,80 445,90 460,70 475,50" stroke="#4d88ff" stroke-width="2" fill="none"/>
  
  <!-- Candlesticks -->
  <rect x="235" y="190" width="4" height="10" fill="#ff4d4d"/>
  <line x1="237" y1="186" x2="237" y2="182" stroke="#ff4d4d" stroke-width="1"/>
  <line x1="237" y1="200" x2="237" y2="204" stroke="#ff4d4d" stroke-width="1"/>
  
  <rect x="265" y="170" width="4" height="15" fill="#4dff4d"/>
  <line x1="267" y1="170" x2="267" y2="166" stroke="#4dff4d" stroke-width="1"/>
  <line x1="267" y1="185" x2="267" y2="190" stroke="#4dff4d" stroke-width="1"/>
  
  <rect x="295" y="170" width="4" height="10" fill="#ff4d4d"/>
  <line x1="297" y1="166" x2="297" y2="162" stroke="#ff4d4d" stroke-width="1"/>
  <line x1="297" y1="180" x2="297" y2="184" stroke="#ff4d4d" stroke-width="1"/>
  
  <rect x="325" y="150" width="4" height="15" fill="#4dff4d"/>
  <line x1="327" y1="150" x2="327" y2="145" stroke="#4dff4d" stroke-width="1"/>
  <line x1="327" y1="165" x2="327" y2="170" stroke="#4dff4d" stroke-width="1"/>
  
  <!-- Chart title -->
  <rect x="200" y="40" width="300" height="20" fill="#2a2a2a"/>
  <text x="210" y="55" font-family="Arial" font-size="12" fill="#e0e0e0">EUR/USD, M5</text>
  
  <!-- Chart 2 -->
  <rect x="500" y="40" width="300" height="280" fill="#111111"/>
  
  <!-- Price chart -->
  <polyline points="520,190 535,180 550,200 565,170 580,180 595,150 610,130 625,140 640,120 655,100 670,110 685,90 700,80 715,90 730,70 745,80 760,60 775,40" stroke="#ff9900" stroke-width="2" fill="none"/>
  
  <!-- Chart title -->
  <rect x="500" y="40" width="300" height="20" fill="#2a2a2a"/>
  <text x="510" y="55" font-family="Arial" font-size="12" fill="#e0e0e0">GBP/USD, M5</text>
  
  <!-- Chart 3 -->
  <rect x="200" y="320" width="300" height="280" fill="#111111"/>
  
  <!-- Oscillator chart -->
  <rect x="200" y="460" width="300" height="60" fill="#111111"/>
  <line x1="200" y1="490" x2="500" y2="490" stroke="#555555" stroke-width="1" stroke-dasharray="2,2"/>
  <polyline points="220,480 235,495 250,485 265,495 280,475 295,485 310,475 325,490 340,470 355,485 370,470 385,490 400,475 415,495 430,475 445,490 460,460 475,475" stroke="#9966ff" stroke-width="2" fill="none"/>
  
  <!-- Chart title -->
  <rect x="200" y="320" width="300" height="20" fill="#2a2a2a"/>
  <text x="210" y="335" font-family="Arial" font-size="12" fill="#e0e0e0">USD/JPY, M5</text>
  
  <!-- Chart 4 -->
  <rect x="500" y="320" width="300" height="280" fill="#111111"/>
  
  <!-- Indicator chart -->
  <polyline points="520,470 535,450 550,470 565,480 580,450 595,480 610,460 625,480 640,450 655,480 670,450 685,480 700,450 715,470 730,450 745,480 760,440 775,470" stroke="#00ccff" stroke-width="2" fill="none"/>
  
  <!-- Chart title -->
  <rect x="500" y="320" width="300" height="20" fill="#2a2a2a"/>
  <text x="510" y="335" font-family="Arial" font-size="12" fill="#e0e0e0">AUD/USD, M5</text>
  
  <!-- Economic Calendar -->
  <rect x="10" y="480" width="180" height="25" rx="3" fill="#2c2c2c"/>
  <text x="20" y="498" font-family="Arial" font-size="14" fill="#e0e0e0">Economic Calendar</text>
  
  <rect x="10" y="510" width="180" height="20" fill="#232323"/>
  <text x="15" y="525" font-family="Arial" font-size="10" fill="#cccccc">10:30 USD NFP</text>
  <text x="150" y="525" font-family="Arial" font-size="10" fill="#ff9900">High</text>
  
  <rect x="10" y="530" width="180" height="20" fill="#232323"/>
  <text x="15" y="545" font-family="Arial" font-size="10" fill="#cccccc">11:00 ECB Rate</text>
  <text x="150" y="545" font-family="Arial" font-size="10" fill="#ff9900">High</text>
  
  <rect x="10" y="550" width="180" height="20" fill="#232323"/>
  <text x="15" y="565" font-family="Arial" font-size="10" fill="#cccccc">14:15 CAD Employment</text>
  <text x="150" y="565" font-family="Arial" font-size="10" fill="#ffff00">Medium</text>
  
  <!-- Grid lines for all charts -->
  <!-- Chart 1 grid -->
  <line x1="200" y1="100" x2="500" y2="100" stroke="#333333" stroke-width="1"/>
  <line x1="200" y1="160" x2="500" y2="160" stroke="#333333" stroke-width="1"/>
  <line x1="200" y1="220" x2="500" y2="220" stroke="#333333" stroke-width="1"/>
  
  <line x1="260" y1="40" x2="260" y2="320" stroke="#333333" stroke-width="1"/>
  <line x1="320" y1="40" x2="320" y2="320" stroke="#333333" stroke-width="1"/>
  <line x1="380" y1="40" x2="380" y2="320" stroke="#333333" stroke-width="1"/>
  <line x1="440" y1="40" x2="440" y2="320" stroke="#333333" stroke-width="1"/>
  
  <!-- Chart 2 grid -->
  <line x1="500" y1="100" x2="800" y2="100" stroke="#333333" stroke-width="1"/>
  <line x1="500" y1="160" x2="800" y2="160" stroke="#333333" stroke-width="1"/>
  <line x1="500" y1="220" x2="800" y2="220" stroke="#333333" stroke-width="1"/>
  
  <line x1="560" y1="40" x2="560" y2="320" stroke="#333333" stroke-width="1"/>
  <line x1="620" y1="40" x2="620" y2="320" stroke="#333333" stroke-width="1"/>
  <line x1="680" y1="40" x2="680" y2="320" stroke="#333333" stroke-width="1"/>
  <line x1="740" y1="40" x2="740" y2="320" stroke="#333333" stroke-width="1"/>
  
  <!-- Chart 3 grid -->
  <line x1="200" y1="380" x2="500" y2="380" stroke="#333333" stroke-width="1"/>
  <line x1="200" y1="440" x2="500" y2="440" stroke="#333333" stroke-width="1"/>
  <line x1="200" y1="500" x2="500" y2="500" stroke="#333333" stroke-width="1"/>
  <line x1="200" y1="560" x2="500" y2="560" stroke="#333333" stroke-width="1"/>
  
  <line x1="260" y1="320" x2="260" y2="600" stroke="#333333" stroke-width="1"/>
  <line x1="320" y1="320" x2="320" y2="600" stroke="#333333" stroke-width="1"/>
  <line x1="380" y1="320" x2="380" y2="600" stroke="#333333" stroke-width="1"/>
  <line x1="440" y1="320" x2="440" y2="600" stroke="#333333" stroke-width="1"/>
  
  <!-- Chart 4 grid -->
  <line x1="500" y1="380" x2="800" y2="380" stroke="#333333" stroke-width="1"/>
  <line x1="500" y1="440" x2="800" y2="440" stroke="#333333" stroke-width="1"/>
  <line x1="500" y1="500" x2="800" y2="500" stroke="#333333" stroke-width="1"/>
  <line x1="500" y1="560" x2="800" y2="560" stroke="#333333" stroke-width="1"/>
  
  <line x1="560" y1="320" x2="560" y2="600" stroke="#333333" stroke-width="1"/>
  <line x1="620" y1="320" x2="620" y2="600" stroke="#333333" stroke-width="1"/>
  <line x1="680" y1="320" x2="680" y2="600" stroke="#333333" stroke-width="1"/>
  <line x1="740" y1="320" x2="740" y2="600" stroke="#333333" stroke-width="1"/>
</svg>